# xmcd CD database file
#
# Track frame offsets:
#	150
#	12641
#	29651
#	45236
#	59902
#	72811
#	95082
#	107212
#	123691
#	137725
#	151713
#	169977
#	184230
#
# Disc length: 2712 seconds
#
# Revision: 0
# Processed by: cddbd v1.5.1PL2 Copyright (c) Steve Scherf et al.
# Submitted via: CDex 1.51
#
DISCID=c00a960d
DTITLE=Dolly Parton - The Grass is Blue
DYEAR=1999
DGENRE=Country
TTITLE0=Travelin' Prayer
TTITLE1=Cash on Barrelhead
TTITLE2=A Few Old Memories
TTITLE3=I'm Gonna Sleep with One Eye Open
TTITLE4=Steady as the Rain
TTITLE5=I Still Miss Someone
TTITLE6=Endless Stream of Tears
TTITLE7=Silver Digger
TTITLE8=Train, Train
TTITLE9=I Wonder Where You Are Tonight
TTITLE10=Will He Be Waiting
TTITLE11=The Grass is Blue
TTITLE12=I am Ready
EXTD=YEAR: 1999
EXTT0=
EXTT1=
EXTT2=
EXTT3=
EXTT4=
EXTT5=
EXTT6=
EXTT7=
EXTT8=
EXTT9=
EXTT10=
EXTT11=
EXTT12=
PLAYORDER=
